<svg width="100" height="100" viewBox="0 0 100 100" fill="none" xmlns="http://www.w3.org/2000/svg">
<g filter="url(#filter0_d_4_252366)">
<rect x="15" y="11" width="70" height="70" rx="10" fill="#FCE300"/>
<path fill-rule="evenodd" clip-rule="evenodd" d="M31.0407 41.4812H68.8857C71.9826 41.4812 74.5162 44.0188 74.5162 47.1206V60.6083C74.5162 63.7101 71.9826 66.2478 68.8857 66.2478H31.0407C27.9438 66.2478 25.4102 63.7101 25.4102 60.6083V47.1206C25.4102 44.0188 27.9438 41.4812 31.0407 41.4812" fill="black"/>
<path fill-rule="evenodd" clip-rule="evenodd" d="M38.7709 58.1606C38.1263 58.5859 37.4659 58.7985 36.7897 58.7985C36.1922 58.7985 35.7204 58.6135 35.3745 58.2434C35.0285 57.8733 34.8556 57.3338 34.8556 56.6251V51.0972H38.8652V49.0656H34.8556V45.4276H32.4027V49.0656H29.8789V51.0972H32.4027V56.7905C32.4027 58.2078 32.7801 59.2827 33.5349 60.0152C34.2896 60.7475 35.3196 61.1137 36.6246 61.1137C37.5523 61.1137 38.5194 60.8144 39.5256 60.2158L38.7709 58.1606ZM51.3291 49.0656H48.8761V50.4121C47.8069 49.294 46.3917 48.7349 44.6306 48.7349C43.0581 48.7349 41.698 49.3176 40.5502 50.483C39.4023 51.6484 38.8283 53.1289 38.8283 54.9243C38.8283 56.7354 39.3984 58.2198 40.5383 59.3773C41.6784 60.5348 43.0425 61.1137 44.6306 61.1137C46.3917 61.1137 47.8069 60.5546 48.8761 59.4363V60.7829H51.3291V49.0656ZM45.0303 58.9402C43.9298 58.9402 43.0178 58.5742 42.2944 57.8417C41.5711 57.1093 41.2095 56.1369 41.2095 54.9243C41.2095 53.7115 41.5711 52.7391 42.2944 52.0068C43.0178 51.2744 43.9298 50.9083 45.0303 50.9083C46.0525 50.9083 46.9488 51.2824 47.7192 52.0304C48.4897 52.7784 48.875 53.743 48.875 54.9243C48.875 56.1054 48.4897 57.07 47.7192 57.818C46.9488 58.5663 46.0525 58.9402 45.0303 58.9402ZM60.5834 55.0423L64.7817 49.0419H61.8335L58.7674 53.4832L55.7011 49.0419H52.7764L56.9748 55.0423L52.7764 60.7828H55.7011L58.7674 56.5542L61.8335 60.7828H64.7817L60.5834 55.0423ZM67.6241 44.0102C67.1681 44.0102 66.7908 44.1598 66.4921 44.4589C66.1932 44.7582 66.0439 45.1204 66.0439 45.5457C66.0439 45.9866 66.1932 46.3488 66.4921 46.6324C66.7908 46.9158 67.1681 47.0575 67.6241 47.0575C68.0802 47.0575 68.4536 46.9158 68.7445 46.6324C69.0354 46.3488 69.1809 45.9866 69.1809 45.5457C69.1809 45.1204 69.0315 44.7582 68.7327 44.4589C68.4339 44.1598 68.0644 44.0102 67.6241 44.0102ZM68.8499 60.7828V49.0656H66.3971V60.7828H68.8499Z" fill="#FCE300"/>
<path fill-rule="evenodd" clip-rule="evenodd" d="M46.8099 25.4171C44.9231 25.4171 43.4685 26.1337 42.4465 27.567C42.069 26.8896 41.5384 26.3621 40.8544 25.9841C40.1704 25.6062 39.404 25.4171 38.5547 25.4171C36.9509 25.4171 35.7008 25.9684 34.8046 27.0708V25.7479H32.3516V37.4652H34.8046V31.6537C34.8046 30.3623 35.0836 29.378 35.6418 28.7008C36.2001 28.0236 36.9589 27.6851 37.9179 27.6851C38.6885 27.6851 39.3214 27.9409 39.8166 28.4527C40.3119 28.9645 40.5596 29.6458 40.5596 30.4962V37.4652H43.0126V31.6537C43.0126 30.3623 43.2956 29.378 43.8617 28.7008C44.4278 28.0236 45.1982 27.6851 46.1731 27.6851C46.9436 27.6851 47.5765 27.9409 48.0717 28.4527C48.5671 28.9645 48.8148 29.6458 48.8148 30.4962V37.4652H51.2442V30.0001C51.2442 28.6456 50.8156 27.5434 49.9586 26.6928C49.1017 25.8424 48.0521 25.4171 46.8099 25.4171ZM64.3219 25.7243H61.5859L57.8356 34.1815L54.1798 25.7243H51.4438L56.4912 37.1817L54.5808 41.4812H57.3168L64.3219 25.7243Z" fill="black"/>
</g>
<defs>
<filter id="filter0_d_4_252366" x="0" y="0" width="100" height="100" filterUnits="userSpaceOnUse" color-interpolation-filters="sRGB">
<feFlood flood-opacity="0" result="BackgroundImageFix"/>
<feColorMatrix in="SourceAlpha" type="matrix" values="0 0 0 0 0 0 0 0 0 0 0 0 0 0 0 0 0 0 127 0" result="hardAlpha"/>
<feOffset dy="4"/>
<feGaussianBlur stdDeviation="7.5"/>
<feColorMatrix type="matrix" values="0 0 0 0 0 0 0 0 0 0 0 0 0 0 0 0 0 0 0.0865931 0"/>
<feBlend mode="normal" in2="BackgroundImageFix" result="effect1_dropShadow_4_252366"/>
<feBlend mode="normal" in="SourceGraphic" in2="effect1_dropShadow_4_252366" result="shape"/>
</filter>
</defs>
</svg>
